<svg xmlns="http://www.w3.org/2000/svg" width="622" height="602.49" viewBox="0 0 622 602.49">
  <g id="Grupo_1" data-name="Grupo 1" transform="translate(-54 19.49)">
    <text id="La_picada_de_la_Esquina" data-name="La picada de la Esquina" transform="translate(54 557)" fill="#f6f6f6" font-size="52" font-family="SegoePrint-Bold, Segoe Print" font-weight="700"><tspan x="0" y="0">La picada de la Esquina</tspan></text>
    <g id="pngegg" transform="translate(109.112 492.13)">
      <path id="Trazado_1" data-name="Trazado 1" d="M233-511c-49.3,4.8-95,23-135,53.8C78.5-442.2,53.2-414,38.6-391c-6.3,9.9-18.6,35.1-23,47.1-4.9,13.4-10.2,34-12.8,49.9-3.1,19.5-3.1,56.5,0,76a252.372,252.372,0,0,0,23.7,74.5c13.1,26.7,26.9,46,48.5,67.6,21,21,38.7,34.2,63.5,47A254.922,254.922,0,0,0,320.9-8.5c18-4.8,29.7-9.2,47.6-18,26.9-13.2,46-26.9,68.1-48.9,22-22.1,35.7-41.2,48.9-68.1,8.8-17.9,13.2-29.6,18-47.6,6.3-24,7.8-37.1,7.8-64.9s-1.5-40.9-7.8-64.9c-4.8-18-9.2-29.7-18-47.6-13.2-26.9-26.9-46-48.9-68.1-22.1-22-41.2-35.7-68.1-48.9a248.534,248.534,0,0,0-74-23.5C279.8-511.3,247-512.4,233-511Zm44,19.1A237.57,237.57,0,0,1,461.8-373a236.061,236.061,0,0,1,30.1,138A237.461,237.461,0,0,1,362.1-44.4c-80.5,40.5-175.6,31.8-249-22.8-12.3-9.2-36.7-33.6-45.9-45.9C-3-207.4,4.5-335.8,85-419.4,135.7-472.1,205.5-498.5,277-491.9Z"/>
      <path id="Trazado_2" data-name="Trazado 2" d="M239.5-471.4c-28.7,3-52,9.2-74.9,19.8-45.1,21-85.2,61.6-105.5,107.1a218.28,218.28,0,0,0-10,149.7A216.7,216.7,0,0,0,160.6-62.6c4.9,2.4,9,4.1,9.1,3.7.1-.3.9-13,1.7-28.1,2.3-42.6.5-49.1-16.9-62-6.8-5-11.2-10.2-12.6-14.8-1.9-6.3-.7-107.5,1.5-122.7a427.126,427.126,0,0,1,29.8-106.9c6.3-14.7,8.9-19.4,14.6-26.3,5.9-7.3,13-10.4,15-6.6.5,1,1.2,67.4,1.5,154.3.5,114.2,1.1,161.7,2.2,189,.9,20.1,1.9,36.8,2.3,37.2,1.4,1.3,25.9,4.8,38.1,5.4,10.2.5,34.7-.8,35.6-1.8.2-.3,6.4-119.7,6.8-132.1l.2-5.7-6.8-2.5c-10.3-3.6-17.3-8.1-26.4-17.1-11.4-11.3-11.8-12.9-11.7-42.4.2-27.7,3.3-66.3,9.9-122.5,2.3-19.2,1.4-17.5,9-17.5H270l.2,72.7.3,72.8h13l.3-72.8L284-382h14l.2,72.7.3,72.8,6.2.3,6.3.3.2-72.8.3-72.8,7.2-.3,7.3-.3.2,72.8.3,72.8h13l.3-72.8L340-382h4.9c4.6,0,5,.2,5.5,2.7.9,4.2,7.3,63.4,9.1,83.8,4,46.3,4,76.4-.2,85.3-2.3,5-15.6,17.9-22.5,22a70.914,70.914,0,0,1-12.2,5.5c-3.5,1.3-6.7,2.5-7.1,2.8-.5.6,5.2,119.6,6.1,125.5l.4,3.2,9.3-3.5A237.076,237.076,0,0,0,376-76.9c55.9-38,89.6-95.8,95.1-163.1,6.5-80.8-34.2-158.9-105.4-201.9-22.2-13.4-50.4-23.4-77.7-27.6C277.8-471,247.5-472.2,239.5-471.4Z"/>
    </g>
  </g>
</svg>
