<?xml version="1.0" standalone="no"?>
<!DOCTYPE svg PUBLIC "-//W3C//DTD SVG 20010904//EN"
 "http://www.w3.org/TR/2001/REC-SVG-20010904/DTD/svg10.dtd">
<svg version="1.0" xmlns="http://www.w3.org/2000/svg"
 width="512.000000pt" height="512.000000pt" viewBox="0 0 512.000000 512.000000"
 preserveAspectRatio="xMidYMid meet">

<g transform="translate(0.000000,512.000000) scale(0.100000,-0.100000)"
fill="#000000" stroke="none">
<path d="M2330 5110 c-493 -48 -950 -230 -1350 -538 -195 -150 -448 -432 -594
-662 -63 -99 -186 -351 -230 -471 -49 -134 -102 -340 -128 -499 -31 -195 -31
-565 0 -760 45 -276 116 -498 237 -745 131 -267 269 -460 485 -676 210 -210
387 -342 635 -470 563 -292 1211 -365 1824 -204 180 48 297 92 476 180 269
132 460 269 681 489 220 221 357 412 489 681 88 179 132 296 180 476 63 240
78 371 78 649 0 278 -15 409 -78 649 -48 180 -92 297 -180 476 -132 269 -269
460 -489 681 -221 220 -412 357 -681 489 -246 121 -474 193 -740 235 -147 23
-475 34 -615 20z m440 -191 c772 -70 1460 -512 1848 -1189 238 -415 345 -905
301 -1380 -74 -816 -564 -1536 -1298 -1906 -805 -405 -1756 -318 -2490 228
-123 92 -367 336 -459 459 -702 943 -627 2227 178 3063 507 527 1205 791 1920
725z"/>
<path d="M2395 4714 c-287 -30 -520 -92 -749 -198 -451 -210 -852 -616 -1055
-1071 -209 -470 -245 -1007 -100 -1497 171 -575 575 -1054 1115 -1322 49 -24
90 -41 91 -37 1 3 9 130 17 281 23 426 5 491 -169 620 -68 50 -112 102 -126
148 -19 63 -7 1075 15 1227 52 367 155 735 298 1069 63 147 89 194 146 263 59
73 130 104 150 66 5 -10 12 -674 15 -1543 5 -1142 11 -1617 22 -1890 9 -201
19 -368 23 -372 14 -13 259 -48 381 -54 102 -5 347 8 356 18 2 3 64 1197 68
1321 l2 57 -68 25 c-103 36 -173 81 -264 171 -114 113 -118 129 -117 424 2
277 33 663 99 1225 23 192 14 175 90 175 l65 0 2 -727 3 -728 65 0 65 0 3 728
2 727 70 0 70 0 2 -727 3 -728 62 -3 63 -3 2 728 3 728 72 3 73 3 2 -728 3
-728 65 0 65 0 3 728 2 727 49 0 c46 0 50 -2 55 -27 9 -42 73 -634 91 -838 40
-463 40 -764 -2 -853 -23 -50 -156 -179 -225 -220 -31 -19 -86 -43 -122 -55
-35 -13 -67 -25 -71 -28 -5 -6 52 -1196 61 -1255 l4 -32 93 35 c128 48 314
145 427 222 559 380 896 958 951 1631 65 808 -342 1589 -1054 2019 -222 134
-504 234 -777 276 -102 15 -405 27 -485 19z"/>
</g>
</svg>
